<svg width="1264" height="200" viewBox="0 0 1264 200" fill="none" xmlns="http://www.w3.org/2000/svg">
<path d="M1182.12 58.9105C1189.24 22.2523 1272.01 30.052 1247.5 75.3697C1220.48 125.335 1049.06 126.5 1010 126.5" stroke="white"/>
<path d="M81.8833 59.0408C74.7557 22.3826 -8.00589 30.1823 16.4999 75.5C43.5192 125.466 214.936 126.5 254 126.5" stroke="white"/>
<line x1="758" y1="126.5" x2="1010" y2="126.5" stroke="white"/>
<line x1="506" y1="126.5" x2="758" y2="126.5" stroke="white"/>
<line x1="254" y1="126.5" x2="368" y2="126.5" stroke="white"/>
<line x1="393" y1="126.5" x2="506" y2="126.5" stroke="white"/>
<path d="M392.5 127C392.5 133.332 387.147 138.5 380.5 138.5C373.853 138.5 368.5 133.332 368.5 127C368.5 120.668 373.853 115.5 380.5 115.5C387.147 115.5 392.5 120.668 392.5 127Z" stroke="white"/>
<circle cx="380.5" cy="146.5" r="4" stroke="white"/>
</svg>
