<svg width="1264" height="200" viewBox="0 0 1264 200" fill="none" xmlns="http://www.w3.org/2000/svg">
<path d="M1182.12 58.9105C1189.24 22.2523 1272.01 30.052 1247.5 75.3697C1220.48 125.335 1049.06 126.5 1010 126.5" stroke="white"/>
<path d="M81.8833 59.0408C74.7557 22.3826 -8.00589 30.1823 16.4999 75.5C43.5192 125.466 214.936 126.5 254 126.5" stroke="white"/>
<line x1="254" y1="126.5" x2="506" y2="126.5" stroke="white"/>
<line x1="506" y1="126.5" x2="758" y2="126.5" stroke="white"/>
<line x1="758" y1="126.5" x2="872" y2="126.5" stroke="white"/>
<line x1="897" y1="126.5" x2="1010" y2="126.5" stroke="white"/>
<path d="M896.5 127C896.5 133.332 891.147 138.5 884.5 138.5C877.853 138.5 872.5 133.332 872.5 127C872.5 120.668 877.853 115.5 884.5 115.5C891.147 115.5 896.5 120.668 896.5 127Z" stroke="white"/>
<circle cx="884.5" cy="146.5" r="4" stroke="white"/>
</svg>
